<svg width="66" height="66" viewBox="0 0 66 66" fill="none" xmlns="http://www.w3.org/2000/svg">
<circle opacity="0.2" cx="33" cy="33" r="33" fill="#4AD9ED"/>
<path d="M34.5875 16.3094C30.5656 15.6 28.1281 17.9813 27.7843 21.8469C27.7093 22.6844 27.0406 23.4219 26.5312 24.0813C24.8218 26.3031 23.0687 28.6281 21.275 30.7969C19.7187 32.675 18.3843 34.7125 17.0156 36.725C14.1687 40.9313 13.0437 44.1875 14.6312 49.1844C14.9781 50.2844 15.7718 52.0813 17.2 52.0125C18.6281 51.9469 18.8531 50.1313 19.1125 49.0969C19.2437 48.5656 19.4 47.9344 19.8375 47.5531C20.0718 47.35 20.2687 47.4156 20.5312 47.3438C20.7968 47.2719 20.8187 47.2188 21.0281 47.0656C21.6125 46.6375 21.7718 46.8438 22.2218 47.2844C22.8687 47.9188 23.9406 47.8688 24.7593 47.7063C25.2375 47.6125 25.3937 47.5094 25.6781 47.1531C25.9843 46.7656 26.4531 46.5125 26.725 46.1C27.0062 45.675 27.0156 45.525 27.5343 45.3531C28.6406 44.9875 28.9437 45.7563 29.7343 46.2969C30.5093 46.8281 31.5625 47.0344 32.4781 46.8219C32.9218 46.7188 33.05 46.5969 33.2687 46.2344C33.5281 45.8 33.8656 45.5063 34.1781 45.1125C34.5218 44.675 34.7968 44.4094 35.2687 44.1125C35.6968 43.8438 36.0812 43.725 36.5656 43.5719C37.4531 43.2906 38.3093 42.9 39.1906 42.6063C40.3375 42.2219 41.4843 41.8375 42.6312 41.45C44.8875 40.6813 47.1375 39.8969 49.3687 39.0688C50.6437 38.5969 52.0718 38.2219 52.4031 36.7344C52.5156 36.2313 52.6 35.7219 52.6531 35.2094C53.2375 29.6344 49.9343 24.6875 45.6718 21.3625C43.5156 19.6813 41.0843 18.3313 38.5156 17.3813C37.5312 17.0219 36.1 16.5781 34.5875 16.3094Z" fill="#FFE082"/>
<path d="M29.3719 38.4813C29.2406 38.4813 29.1156 38.475 28.9875 38.4656C27.7562 38.3469 26.8 37.2531 26.7594 35.9156C26.7375 35.1313 27.0969 34.4031 27.7469 33.9219C27.9094 33.8 28.1781 33.6219 28.4781 33.5094C28.4187 33.3687 28.3656 33.2094 28.3219 33.0344C28.2031 32.5531 28.2406 32.0844 28.4344 31.675C28.7562 30.9906 29.45 30.525 30.3875 30.35C30.5844 30.3156 30.8 30.2969 31.0219 30.2969C31.4344 30.2969 32.4625 30.3719 33.0844 31.0625C33.2969 31.2969 33.4344 31.575 33.4937 31.8844C34.5156 31.6438 35.6531 32.1094 36.1906 33.0062C36.8375 34.0875 36.7406 35.7188 35.5625 36.4281C35.0375 36.7438 34.4687 36.8875 33.7656 36.8875C33.65 36.8875 33.5719 36.8938 33.4875 36.9C33.1687 36.9125 32.8562 36.9125 32.6094 36.8562C32.5196 36.835 32.4326 36.8036 32.35 36.7625C32.3437 36.775 32.3375 36.7844 32.3312 36.7969C32.0469 37.25 31.6781 37.7531 30.9437 38.0375C30.8812 38.0625 30.8219 38.0969 30.7656 38.1312C30.625 38.2094 30.4812 38.2875 30.325 38.3375C30.0406 38.4344 29.7219 38.4813 29.3719 38.4813ZM29.0031 34.8469C28.9906 34.8563 28.8031 34.9469 28.6125 35.0875C28.3437 35.2844 28.2031 35.5656 28.2094 35.8781C28.2219 36.4031 28.5719 36.9687 29.125 37.025C29.3875 37.0469 29.6656 37.0344 29.8625 36.9688C29.9312 36.9469 29.9906 36.9063 30.0531 36.8719C30.1719 36.8031 30.2906 36.7406 30.4187 36.6906C30.6875 36.5875 30.85 36.4313 31.1062 36.0219C31.1156 36.0031 31.125 35.9781 31.1375 35.95C31.2062 35.7938 31.3219 35.5281 31.5969 35.3469C31.7844 35.2219 31.9844 35.1563 32.1969 35.1563C32.525 35.1563 32.7656 35.3156 32.9062 35.4062C32.9312 35.4219 32.9562 35.4437 32.9844 35.4531C32.9937 35.4531 33.0594 35.4594 33.1406 35.4594C33.2281 35.4594 33.3219 35.4531 33.4125 35.4469C33.5219 35.4406 33.6312 35.4344 33.7312 35.4344C34.2031 35.4344 34.5187 35.3594 34.8156 35.1813C35.2187 34.9375 35.2187 34.2 34.95 33.75C34.7 33.3313 34.1125 33.15 33.6562 33.3469L33.6312 33.3719C33.4531 33.4969 33.1437 33.7 32.7781 33.6531C32.6636 33.6376 32.5534 33.5992 32.454 33.5402C32.3547 33.4811 32.2683 33.4026 32.2 33.3094C31.9594 32.9812 32.025 32.6063 32.0625 32.3813L32.0719 32.3031C32.0906 32.1219 32.0344 32.0563 32.0062 32.0281C31.8531 31.8594 31.4562 31.7438 31.0187 31.7438C30.8844 31.7438 30.7562 31.7563 30.6469 31.775C30.1937 31.8563 29.8562 32.05 29.7437 32.2906C29.6812 32.4219 29.7 32.5781 29.7281 32.6875C29.7844 32.9219 29.8375 32.9938 29.8406 32.9969C29.9656 33.0719 30.2 33.2281 30.3281 33.5531C30.5094 34.0062 30.4 34.3219 30.275 34.5063C30.175 34.6531 29.9406 34.8969 29.475 34.8969C29.3594 34.8969 29.2219 34.8812 29.0969 34.8594C29.0625 34.8562 29.0312 34.85 29.0031 34.8469Z" fill="#757F3F"/>
<path d="M18.2344 34.7031C18.3125 33.9531 18.7875 33.1844 19.8406 32.5063C20.6 32.0188 21.3844 31.8438 22.2813 31.9688C24.325 32.25 26.2219 33.3469 25.6344 35.7594C25.3906 36.7625 24.1063 37.55 23.2032 37.8719C22.1032 38.2656 20.8781 38.2188 19.825 37.7094C19.35 37.4813 18.725 37.05 18.4469 36.5938C18.1563 36.1156 18.175 35.2469 18.2344 34.7031Z" fill="#ED6C30"/>
<path d="M23.875 33.8937L23.4219 34.6156L24.5094 34.7062L24.8719 33.8937L24.3281 33.35L23.875 33.8937ZM20.6656 34.7969L19.8125 34.8469L20.3688 35.7844L21.2438 35.6062L21.3719 34.85L20.6656 34.7969ZM22.3063 36.3719L21.4375 36.3687L22.0688 37.4094L22.9531 37.2781L23.0313 36.475L22.3063 36.3719ZM24.7281 35.0625L24.5938 35.5375L25.1594 35.5594L25.1813 35.1062L24.7281 35.0625ZM22.6531 35.0437C22.6531 35.0437 22.2469 35.4281 22.3125 35.45C22.3813 35.4719 22.9469 35.5406 22.9469 35.5406L23.1719 35.1781L22.6531 35.0437ZM19.8063 36.0812C19.8063 36.0812 19.2875 36.625 19.4219 36.625C19.5563 36.625 19.9438 36.5562 19.9438 36.5562L20.1688 36.1937L19.8063 36.0812ZM22.2813 32.6344C22.2813 32.6344 21.3375 33.6187 21.5844 33.6187C21.8313 33.6187 22.5281 33.4969 22.5281 33.4969L22.9375 32.8406L22.2813 32.6344Z" fill="white"/>
<path d="M25.8282 25.9062C25.7813 25.15 26.125 24.3156 27.0532 23.4719C27.7219 22.8656 28.4688 22.5656 29.3719 22.5406C31.4313 22.4844 33.4844 23.2531 33.3032 25.7312C33.2313 26.7625 32.0907 27.75 31.2532 28.2156C30.2344 28.7812 29.0188 28.9406 27.8938 28.6125C27.3875 28.4625 26.7 28.1437 26.3532 27.7375C25.9875 27.3125 25.8657 26.45 25.8282 25.9062Z" fill="#ED6C30"/>
<path d="M29.7375 24.3594L29.2844 25.0844L30.3719 25.175L30.7344 24.3594L30.1906 23.8156L29.7375 24.3594ZM28.2469 25.7344L27.3938 25.7875L27.95 26.7219L28.8219 26.5469L28.9531 25.7875L28.2469 25.7344ZM31.1313 26.3031L30.2594 26.3L30.8937 27.3437L31.775 27.2125L31.8562 26.4094L31.1313 26.3031ZM28.0812 27.8406L28.5344 27.5469L28.8281 27.8187L28.6687 28.0656L28.3281 28.1344L28.0812 27.8406ZM31.6562 25.35L31.5219 25.825L32.0875 25.8469L32.1094 25.3969L31.6562 25.35ZM31.95 23.675C31.95 23.675 31.5437 24.0594 31.6094 24.0812C31.6781 24.1031 32.2438 24.1719 32.2438 24.1719L32.4688 23.8094L31.95 23.675ZM28.5094 23.7656C28.5094 23.7656 27.9875 24.3094 28.125 24.3094C28.2594 24.3094 28.6469 24.2406 28.6469 24.2406L28.8719 23.8781L28.5094 23.7656ZM26.4063 26.4594L26.2031 26.8219L26.5187 27.1625C26.5187 27.1625 26.7219 26.9125 26.7219 26.8219C26.7219 26.7312 26.6312 26.4594 26.6312 26.4594H26.4063Z" fill="white"/>
<path d="M36.7062 31.3219C36.7843 30.5719 37.2593 29.8031 38.3125 29.125C39.0718 28.6375 39.8562 28.4625 40.75 28.5875C42.7937 28.8688 44.6906 29.9656 44.1062 32.3781C43.8625 33.3813 42.5781 34.1688 41.675 34.4875C40.575 34.8813 39.35 34.8344 38.2968 34.325C37.8218 34.0969 37.1968 33.6656 36.9187 33.2094C36.6281 32.7344 36.6468 31.8656 36.7062 31.3219Z" fill="#ED6C30"/>
<path d="M39.4532 30.0906L39.5844 30.9344L40.4657 30.2906L40.2094 29.4375L39.4407 29.3813L39.4532 30.0906ZM39.225 32.1063L38.6125 32.7L39.6469 33.0469L40.1938 32.3406L39.7938 31.6844L39.225 32.1063ZM41.7782 30.65L41.1188 31.2188L42.2782 31.5938L42.8594 30.9156L42.3969 30.2563L41.7782 30.65ZM41.7 32.9344L42.1532 32.6375L42.4469 32.9125L42.2907 33.1594L41.95 33.2281L41.7 32.9344ZM39.4125 33.5063C39.4125 33.5063 39.0063 33.8906 39.0719 33.9125C39.1407 33.9344 39.7063 34.0031 39.7063 34.0031L39.9313 33.6406L39.4125 33.5063ZM37.8938 30.6625L37.6907 31.025L38.0063 31.3656C38.0063 31.3656 38.2094 31.1156 38.2094 31.025C38.2094 30.9344 38.1188 30.6625 38.1188 30.6625H37.8938Z" fill="white"/>
<path d="M29.9062 20.9219C30.8125 20.5719 31.5937 21.0031 32.4906 21.3281C33.1312 21.5625 33.75 21.8531 34.3656 22.1406C36.2625 23.0312 38.1593 23.9187 40.0531 24.8094C40.9781 25.2437 41.9062 25.6812 42.725 26.2937C43.6906 27.0156 44.5281 27.8437 45.2906 28.7781C45.9031 29.525 46.5156 30.8531 46.3531 31.8094C46.2625 32.1281 46.0125 31.9406 45.9593 31.8281C45.1583 30.2268 43.9809 28.8435 42.5281 27.7969C40.7281 26.5062 38.5875 25.7875 36.4656 25.1437C35.9375 24.9812 35.3968 24.8219 34.9312 24.525C34.4093 24.1937 34.0062 23.7125 33.5375 23.3094C32.4312 22.3531 30.95 21.8406 29.4875 21.9094C29.1781 21.9375 29.3468 21.1625 29.9062 20.9219Z" fill="#DDA450"/>
<path d="M52.3218 31.5938C51.7781 30.6938 50.8437 30.2313 49.8187 30.4656C48.8562 30.6875 47.6968 31.7594 47.2437 32.6406C46.7906 33.5188 46.5375 35.05 45.6906 35.5594C44.7125 36.1531 43.4343 35.9719 42.3968 36.4531C41.7156 36.7719 40.9281 37.2188 40.2781 37.6C39.3281 38.1594 38.4468 38.3844 37.3593 38.5719C36.2718 38.7594 34.8875 39.1156 34.2218 39.9969C33.9812 40.3188 33.8187 40.6938 33.5687 41.0094C32.5937 42.2531 31.4375 41.5 29.8781 41.2375C29.3812 41.1531 28.75 41.1 28.2656 41.2375C27.7531 41.3813 26.7562 42.125 26.2843 42.375C25.1031 43.0063 23.7593 42.425 22.5312 42.9594C20.9093 43.6656 20.0687 45.4813 18.6031 46.475C17.7687 47.0406 16.7125 47.3156 15.7312 47.0875C14.9906 46.9156 14.3125 46.4313 13.9343 45.7781C14.0125 46.8344 14.2343 47.9563 14.625 49.1844C14.9718 50.2844 15.7656 52.0813 17.1937 52.0125C18.6218 51.9469 18.8468 50.1313 19.1062 49.0969C19.2375 48.5656 19.3937 47.9344 19.8312 47.5531C20.0656 47.35 20.2625 47.4156 20.525 47.3438C20.7906 47.2719 20.8125 47.2188 21.0218 47.0656C21.6062 46.6375 21.7656 46.8438 22.2156 47.2844C22.8625 47.9188 23.9343 47.8688 24.7531 47.7063C25.2312 47.6125 25.3875 47.5094 25.6718 47.1531C25.9781 46.7656 26.4468 46.5125 26.7187 46.1C27 45.675 27.0093 45.525 27.5281 45.3531C28.6343 44.9875 28.9375 45.7563 29.7281 46.2969C30.5031 46.8281 31.5562 47.0344 32.4718 46.8219C32.9156 46.7188 33.0437 46.5969 33.2624 46.2344C33.5218 45.8 33.8593 45.5063 34.1718 45.1125C34.5156 44.675 34.7906 44.4094 35.2625 44.1125C35.6906 43.8438 36.075 43.725 36.5593 43.5719C37.4468 43.2906 38.3031 42.9 39.1843 42.6063C40.3312 42.2219 41.4781 41.8375 42.625 41.45C44.8812 40.6813 47.1312 39.8969 49.3625 39.0688C50.6375 38.5969 52.0656 38.2219 52.3968 36.7344C52.5093 36.2313 52.5937 35.7219 52.6468 35.2094C52.6843 34.85 52.7062 34.4906 52.7125 34.1375C52.7156 33.3719 52.7375 32.2781 52.3218 31.5938Z" fill="#DDA450"/>
<path d="M32.6228 25.9075L33.4118 24.5981L34.7212 25.3871C35.1722 25.6589 35.4968 26.0987 35.6235 26.6098C35.7502 27.1208 35.6687 27.6613 35.397 28.1123L34.6079 29.4217L33.2985 28.6327C32.8475 28.3609 32.523 27.9211 32.3962 27.41C32.2695 26.8989 32.351 26.3584 32.6228 25.9074L32.6228 25.9075Z" fill="#6EBD6A"/>
<path d="M34.9171 27.0868L34.522 27.3705C34.4039 27.4551 34.3124 27.5715 34.258 27.7062L34.171 27.3557C34.1407 27.2351 34.1474 27.1081 34.1903 26.9914C34.2332 26.8747 34.3103 26.7737 34.4115 26.7015L34.8066 26.4178C34.8223 26.4065 34.8328 26.3895 34.8359 26.3704C34.839 26.3513 34.8345 26.3318 34.8232 26.3162C34.8119 26.3005 34.7949 26.2899 34.7758 26.2868C34.7568 26.2837 34.7373 26.2883 34.7216 26.2996L34.3267 26.583C34.2086 26.6676 34.1171 26.784 34.0627 26.9187L33.9757 26.5679C33.9453 26.4473 33.9521 26.3204 33.995 26.2037C34.0379 26.087 34.115 25.9859 34.2162 25.9137C34.2319 25.9025 34.2425 25.8854 34.2456 25.8664C34.2487 25.8473 34.2441 25.8278 34.2328 25.8121C34.2215 25.7964 34.2045 25.7859 34.1855 25.7828C34.1664 25.7797 34.1469 25.7842 34.1312 25.7955C34.0131 25.8801 33.9215 25.9965 33.8671 26.1312L33.671 25.3405C33.6687 25.3312 33.6646 25.3225 33.659 25.3148C33.6533 25.3071 33.6461 25.3006 33.638 25.2957C33.6298 25.2907 33.6207 25.2875 33.6112 25.286C33.6018 25.2846 33.5922 25.2851 33.5829 25.2874C33.5736 25.2897 33.5649 25.2938 33.5572 25.2994C33.5495 25.3051 33.543 25.3122 33.5381 25.3204C33.5331 25.3286 33.5299 25.3377 33.5284 25.3471C33.527 25.3566 33.5275 25.3662 33.5298 25.3755L33.7258 26.1663C33.6148 26.0726 33.4795 26.0124 33.3355 25.9928C33.3164 25.9902 33.297 25.9952 33.2816 26.0069C33.2662 26.0186 33.2561 26.0358 33.2535 26.055C33.2508 26.0741 33.2559 26.0935 33.2675 26.1089C33.2792 26.1243 33.2965 26.1344 33.3156 26.1371C33.4388 26.1536 33.5542 26.2069 33.6467 26.2901C33.7391 26.3732 33.8044 26.4823 33.8339 26.6031L33.9209 26.9538C33.8099 26.8602 33.6745 26.8 33.5306 26.7804L33.0493 26.714C33.0302 26.7114 33.0108 26.7164 32.9954 26.7281C32.98 26.7397 32.9698 26.757 32.9672 26.7762C32.9646 26.7953 32.9696 26.8147 32.9813 26.8301C32.9929 26.8455 33.0102 26.8556 33.0294 26.8582L33.5113 26.9245C33.6346 26.941 33.75 26.9944 33.8425 27.0775C33.935 27.1607 34.0003 27.2698 34.0298 27.3907L34.1167 27.7414C34.0057 27.6478 33.8703 27.5876 33.7264 27.568L33.2446 27.5015C33.2351 27.5002 33.2255 27.5008 33.2162 27.5032C33.207 27.5056 33.1983 27.5098 33.1907 27.5156C33.183 27.5214 33.1766 27.5286 33.1718 27.5369C33.167 27.5451 33.1638 27.5542 33.1625 27.5637C33.1612 27.5732 33.1617 27.5828 33.1642 27.592C33.1666 27.6013 33.1708 27.61 33.1766 27.6176C33.1823 27.6252 33.1895 27.6316 33.1978 27.6365C33.206 27.6413 33.2152 27.6445 33.2246 27.6458L33.7066 27.712C33.8298 27.7286 33.9452 27.7819 34.0376 27.865C34.1301 27.9482 34.1954 28.0572 34.2249 28.178L34.3307 28.6049C34.3354 28.6236 34.3472 28.6397 34.3638 28.6497C34.3803 28.6597 34.4001 28.6626 34.4189 28.658C34.4376 28.6534 34.4537 28.6415 34.4637 28.6249C34.4736 28.6084 34.4766 28.5886 34.472 28.5698L34.3661 28.143C34.3358 28.0224 34.3425 27.8955 34.3854 27.7788C34.4283 27.6621 34.5054 27.561 34.6067 27.4888L35.0017 27.2051C35.0095 27.1995 35.016 27.1925 35.0211 27.1844C35.0261 27.1762 35.0295 27.1672 35.031 27.1578C35.0326 27.1483 35.0322 27.1387 35.0301 27.1294C35.0279 27.1201 35.0239 27.1113 35.0183 27.1035C35.0127 27.0957 35.0057 27.0892 34.9975 27.0841C34.9894 27.0791 34.9804 27.0757 34.9709 27.0742C34.9615 27.0726 34.9518 27.073 34.9425 27.0751C34.9332 27.0773 34.9244 27.0813 34.9167 27.0869L34.9171 27.0868Z" fill="#009959"/>
<path d="M26.7555 37.3012L27.8901 37.282L27.9093 38.4166C27.9159 38.8074 27.767 39.1848 27.4953 39.4658C27.2236 39.7468 26.8515 39.9084 26.4607 39.915L25.3261 39.9342L25.3069 38.7996C25.3003 38.4088 25.4492 38.0314 25.7209 37.7504C25.9925 37.4694 26.3647 37.3078 26.7555 37.3012L26.7555 37.3012Z" fill="#6EBD6A"/>
<path d="M26.917 39.2092L26.5829 39.0724C26.4832 39.0314 26.3738 39.0196 26.2677 39.0384L26.454 38.8457C26.5179 38.7791 26.6004 38.7333 26.6908 38.7144C26.7811 38.6954 26.8751 38.7041 26.9604 38.7394L27.2944 38.8762C27.3077 38.8817 27.3226 38.8816 27.3358 38.876C27.349 38.8705 27.3595 38.8599 27.3649 38.8467C27.3703 38.8334 27.3702 38.8185 27.3647 38.8053C27.3592 38.7921 27.3486 38.7816 27.3353 38.7762L27.0015 38.6394C26.9018 38.5984 26.7924 38.5866 26.6863 38.6054L26.8727 38.4126C26.9366 38.346 27.0192 38.3002 27.1095 38.2813C27.1998 38.2623 27.2938 38.271 27.3791 38.3063C27.3923 38.3117 27.4072 38.3116 27.4204 38.3061C27.4336 38.3005 27.4441 38.29 27.4495 38.2767C27.455 38.2634 27.4549 38.2486 27.4494 38.2354C27.4438 38.2221 27.4332 38.2117 27.42 38.2062C27.3202 38.1652 27.2109 38.1535 27.1047 38.1723L27.5251 37.7375C27.53 37.7324 27.5339 37.7264 27.5365 37.7198C27.5391 37.7132 27.5404 37.7061 27.5402 37.699C27.5401 37.6919 27.5386 37.6849 27.5358 37.6784C27.533 37.6719 27.5289 37.666 27.5238 37.6611C27.5187 37.6562 27.5127 37.6523 27.5061 37.6497C27.4995 37.6471 27.4924 37.6458 27.4853 37.6459C27.4782 37.6461 27.4712 37.6476 27.4647 37.6504C27.4582 37.6532 27.4523 37.6573 27.4474 37.6624L27.0271 38.0972C27.0423 37.9904 27.0268 37.8816 26.9825 37.7833C26.9766 37.7702 26.9658 37.76 26.9524 37.7549C26.939 37.7498 26.9241 37.7503 26.9111 37.7561C26.898 37.762 26.8878 37.7728 26.8827 37.7862C26.8776 37.7996 26.878 37.8145 26.8839 37.8276C26.922 37.9116 26.9339 38.0052 26.918 38.0961C26.9021 38.1871 26.8591 38.2711 26.7948 38.3372L26.6083 38.5301C26.6236 38.4233 26.6081 38.3144 26.5637 38.2162L26.416 37.8872C26.4101 37.8741 26.3993 37.8639 26.3859 37.8588C26.3725 37.8537 26.3576 37.8542 26.3446 37.86C26.3315 37.8659 26.3213 37.8767 26.3162 37.8901C26.3111 37.9035 26.3115 37.9184 26.3174 37.9315L26.4655 38.2608C26.5036 38.3449 26.5155 38.4385 26.4996 38.5294C26.4837 38.6204 26.4408 38.7044 26.3763 38.7706L26.1899 38.9634C26.2051 38.8567 26.1896 38.7478 26.1453 38.6496L25.9974 38.3202C25.9945 38.3137 25.9903 38.3079 25.9852 38.303C25.98 38.2981 25.9739 38.2943 25.9673 38.2918C25.9607 38.2893 25.9536 38.2881 25.9465 38.2883C25.9394 38.2885 25.9324 38.2901 25.9259 38.293C25.9195 38.2959 25.9136 38.3001 25.9088 38.3052C25.9039 38.3104 25.9001 38.3165 25.8976 38.3231C25.895 38.3297 25.8939 38.3368 25.8941 38.3439C25.8943 38.351 25.8959 38.358 25.8988 38.3645L26.0469 38.6938C26.085 38.7778 26.0969 38.8714 26.081 38.9623C26.0651 39.0533 26.0221 39.1373 25.9578 39.2034L25.7309 39.4381C25.7209 39.4484 25.7155 39.4622 25.7157 39.4766C25.716 39.4909 25.7219 39.5045 25.7322 39.5145C25.7425 39.5244 25.7563 39.5299 25.7706 39.5297C25.785 39.5294 25.7986 39.5235 25.8086 39.5132L26.0354 39.2785C26.0994 39.2119 26.1819 39.1662 26.2722 39.1472C26.3625 39.1283 26.4565 39.137 26.5418 39.1722L26.8759 39.3091C26.8824 39.3117 26.8895 39.3131 26.8965 39.3131C26.9036 39.313 26.9107 39.3116 26.9172 39.3089C26.9238 39.3061 26.9297 39.3021 26.9347 39.2971C26.9397 39.292 26.9436 39.2861 26.9463 39.2795C26.949 39.2729 26.9504 39.2659 26.9503 39.2588C26.9503 39.2517 26.9489 39.2447 26.9461 39.2381C26.9434 39.2316 26.9394 39.2256 26.9343 39.2207C26.9293 39.2157 26.9233 39.2117 26.9167 39.209L26.917 39.2092Z" fill="#009959"/>
</svg>
